<svg width="66" height="66" viewBox="0 0 66 66" fill="none" xmlns="http://www.w3.org/2000/svg">
<circle cx="33" cy="33" r="33" fill="black"/>
<path d="M31.9369 36.4156H34.1137V29.3891H31.9369V27.8047H36.1528V36.4156H38.3296V38H31.9369V36.4156ZM43.3944 38.1653C42.8433 38.1653 42.3473 38.0827 41.9064 37.9173C41.4655 37.7428 41.0889 37.4948 40.7766 37.1734C40.4735 36.8519 40.2393 36.4615 40.074 36.0023C39.9087 35.543 39.826 35.0241 39.826 34.4454C39.826 33.8668 39.9087 33.3478 40.074 32.8886C40.2393 32.4293 40.4735 32.0389 40.7766 31.7175C41.0889 31.396 41.4655 31.1526 41.9064 30.9873C42.3473 30.8127 42.8433 30.7255 43.3944 30.7255C43.9455 30.7255 44.4414 30.8127 44.8823 30.9873C45.3232 31.1526 45.6952 31.396 45.9983 31.7175C46.3106 32.0389 46.5494 32.4293 46.7147 32.8886C46.8801 33.3478 46.9627 33.8668 46.9627 34.4454C46.9627 35.0241 46.8801 35.543 46.7147 36.0023C46.5494 36.4615 46.3106 36.8519 45.9983 37.1734C45.6952 37.4948 45.3232 37.7428 44.8823 37.9173C44.4414 38.0827 43.9455 38.1653 43.3944 38.1653ZM43.3944 36.6498C43.8536 36.6498 44.2118 36.5074 44.469 36.2227C44.7262 35.938 44.8548 35.5338 44.8548 35.0103V33.8805C44.8548 33.357 44.7262 32.9528 44.469 32.6681C44.2118 32.3834 43.8536 32.241 43.3944 32.241C42.9351 32.241 42.5769 32.3834 42.3197 32.6681C42.0625 32.9528 41.9339 33.357 41.9339 33.8805V35.0103C41.9339 35.5338 42.0625 35.938 42.3197 36.2227C42.5769 36.5074 42.9351 36.6498 43.3944 36.6498ZM55.5545 38.7164C55.5545 39.4696 55.2376 40.0253 54.6039 40.3835C53.9701 40.7417 52.9735 40.9208 51.6141 40.9208C50.9344 40.9208 50.3742 40.8795 49.9333 40.7968C49.4924 40.7234 49.1388 40.6131 48.8724 40.4662C48.6152 40.3192 48.4315 40.1447 48.3213 39.9426C48.2203 39.7406 48.1698 39.5201 48.1698 39.2813C48.1698 38.8772 48.2892 38.5695 48.528 38.3582C48.7668 38.1561 49.102 38 49.5337 37.8898V37.8071C49.2306 37.7153 48.9872 37.5867 48.8035 37.4213C48.629 37.2468 48.5418 37.0034 48.5418 36.6911C48.5418 36.3421 48.6566 36.0849 48.8862 35.9196C49.125 35.7543 49.4373 35.6257 49.8231 35.5338V35.4512C49.4006 35.2491 49.0699 34.9644 48.8311 34.597C48.6015 34.2296 48.4866 33.7841 48.4866 33.2605C48.4866 32.8472 48.5601 32.4844 48.7071 32.1721C48.854 31.8506 49.0607 31.5843 49.3271 31.373C49.6026 31.1618 49.9287 31.001 50.3053 30.8908C50.6819 30.7806 51.1044 30.7255 51.5728 30.7255C52.0229 30.7255 52.4408 30.776 52.8266 30.877V30.4913C52.8266 30.2157 52.923 29.9861 53.1159 29.8024C53.3088 29.6187 53.5751 29.5268 53.915 29.5268H55.1687V31.0148H53.4603V31.1388C53.8461 31.3409 54.1446 31.621 54.3559 31.9792C54.5763 32.3283 54.6865 32.7554 54.6865 33.2605C54.6865 33.6739 54.613 34.0367 54.4661 34.349C54.3191 34.6613 54.1079 34.9276 53.8323 35.1481C53.5568 35.3593 53.2261 35.5201 52.8403 35.6303C52.4638 35.7405 52.0412 35.7956 51.5728 35.7956C51.3616 35.7956 51.1595 35.7864 50.9666 35.768C50.7737 35.7405 50.59 35.7038 50.4155 35.6578C50.3145 35.7129 50.2272 35.7818 50.1537 35.8645C50.0894 35.9472 50.0573 36.0528 50.0573 36.1814C50.0573 36.2916 50.0848 36.3788 50.1399 36.4431C50.1951 36.5074 50.2685 36.558 50.3604 36.5947C50.4614 36.6223 50.5762 36.6406 50.7048 36.6498C50.8334 36.659 50.9666 36.6636 51.1044 36.6636H52.7301C53.2353 36.6636 53.667 36.7141 54.0252 36.8151C54.3834 36.9162 54.6773 37.0585 54.907 37.2422C55.1366 37.4259 55.3019 37.6418 55.4029 37.8898C55.504 38.1378 55.5545 38.4133 55.5545 38.7164ZM53.6257 38.868C53.6257 38.6843 53.5522 38.5373 53.4052 38.4271C53.2583 38.3261 52.9781 38.2755 52.5648 38.2755H50.1262C49.9425 38.4317 49.8506 38.6246 49.8506 38.8542C49.8506 39.0746 49.9425 39.2538 50.1262 39.3915C50.3191 39.5385 50.6405 39.612 51.0906 39.612H52.2892C52.7577 39.612 53.0975 39.5477 53.3088 39.4191C53.52 39.2905 53.6257 39.1068 53.6257 38.868ZM51.5728 34.5005C51.9861 34.5005 52.2846 34.3995 52.4683 34.1974C52.6612 33.9953 52.7577 33.7382 52.7577 33.4259V33.0952C52.7577 32.7829 52.6612 32.5257 52.4683 32.3237C52.2846 32.1216 51.9861 32.0206 51.5728 32.0206C51.1687 32.0206 50.8747 32.1216 50.691 32.3237C50.5073 32.5257 50.4155 32.7829 50.4155 33.0952V33.4259C50.4155 33.7382 50.5073 33.9953 50.691 34.1974C50.8747 34.3995 51.1687 34.5005 51.5728 34.5005Z" fill="white"/>
<path d="M12.5249 19.1123H20.5585C22.8101 19.1123 24.5262 19.6588 25.7066 20.7518C26.9089 21.8448 27.5101 23.3313 27.5101 25.2113C27.5101 26.5229 27.1822 27.5722 26.5264 28.3592C25.8924 29.1243 24.9743 29.6817 23.772 30.0315V30.2282C25.1929 30.578 26.2859 31.1901 27.051 32.0645C27.838 32.9389 28.2315 34.1522 28.2315 35.7042C28.2315 37.6279 27.6194 39.1582 26.3952 40.2949C25.1929 41.4316 23.4987 42 21.3127 42H12.5249V19.1123ZM19.8043 38.557C20.9848 38.557 21.8483 38.3603 22.3948 37.9668C22.9413 37.5733 23.2145 36.8519 23.2145 35.8026V34.8517C23.2145 33.8024 22.9413 33.081 22.3948 32.6875C21.8483 32.294 20.9848 32.0973 19.8043 32.0973H17.3123V38.557H19.8043ZM19.1813 28.8182C20.3399 28.8182 21.1815 28.6324 21.7062 28.2608C22.2308 27.8673 22.4932 27.1678 22.4932 26.1622V25.1785C22.4932 24.1729 22.2308 23.4843 21.7062 23.1127C21.1815 22.7411 20.3399 22.5553 19.1813 22.5553H17.3123V28.8182H19.1813Z" fill="white"/>
</svg>
